<?xml version="1.0" encoding="utf-8"?>
<!-- Generator: Adobe Illustrator 22.0.1, SVG Export Plug-In . SVG Version: 6.00 Build 0)  -->
<svg version="1.1" id="Ebene_1" xmlns="http://www.w3.org/2000/svg" xmlns:xlink="http://www.w3.org/1999/xlink" x="0px" y="0px"
	 viewBox="0 0 185 44" style="enable-background:new 0 0 185 44;" xml:space="preserve">
<style type="text/css">
	.st0{fill:#1E7539;}
</style>
<g>
	<path d="M174.6,14.4h-5.3v14.9h5.3v-7.7c0-1.9,0.6-3.5,2.7-3.5c2.6,0,2.4,2.5,2.4,3.9v7.2h5.3V20c0-3.6-1.6-6.2-5.6-6.2
		c-2.1,0-3.6,0.6-4.8,2.4h0V14.4L174.6,14.4L174.6,14.4z"/>
	<path d="M156.5,14.4h-5.3v14.9h5.3v-7.7c0-1.9,0.6-3.5,2.8-3.5c2.6,0,2.4,2.5,2.4,3.9v7.2h5.3V20c0-3.6-1.6-6.2-5.6-6.2
		c-2.1,0-3.6,0.6-4.8,2.4h-0.1L156.5,14.4L156.5,14.4L156.5,14.4z"/>
	<path d="M149.1,14.4h-5.3v1.4c-1.1-1.3-2.9-1.9-4.6-1.9c-4.4,0-7.5,3.6-7.5,7.9s3.1,8,7.5,8c1.7,0,3.5-0.7,4.5-2.2h0.1v1.6h5.3
		V14.4L149.1,14.4L149.1,14.4z M140.7,18.5c2.1,0,3.4,1.5,3.4,3.3c0,1.9-1.3,3.4-3.4,3.4c-2.2,0-3.4-1.4-3.4-3.4
		C137.3,20,138.6,18.5,140.7,18.5L140.7,18.5L140.7,18.5z"/>
	<path d="M110.7,14.4h-5.3v14.9h5.3v-7.1c0-1.6,0-4.2,2.3-4.2c2.4,0,2.4,2.6,2.4,4.2v7.1h5.3v-7.1c0-1.7,0.1-4.1,2.6-4.1
		c2.2,0,2.2,2.6,2.2,4.1v7.1h5.3v-9.4c0-3.5-1.3-5.9-5.1-5.9c-2,0-4,1-5,2.9c-1.1-2-2.9-2.9-5.1-2.9c-1.9,0-3.5,0.7-4.7,2.3h-0.1
		v-1.9H110.7L110.7,14.4z"/>
	<path d="M87.5,14.4v9c0,4.9,3.5,6.5,8,6.5s8-1.6,8-6.5v-9h-5.3v8c0,1.9-0.5,3.2-2.6,3.2c-2.2,0-2.6-1.3-2.6-3.2v-8H87.5L87.5,14.4
		L87.5,14.4z"/>
	<path d="M85.1,14.4h-5.3v1.4c-1.1-1.3-2.9-1.9-4.6-1.9c-4.4,0-7.5,3.6-7.5,7.9s3.1,8,7.5,8c1.7,0,3.5-0.7,4.5-2.2h0.1v1.6h5.3V14.4
		L85.1,14.4L85.1,14.4z M76.6,18.5c2.2,0,3.4,1.5,3.4,3.3c0,1.9-1.3,3.4-3.4,3.4s-3.4-1.4-3.4-3.4C73.2,20,74.5,18.5,76.6,18.5
		L76.6,18.5L76.6,18.5z"/>
	<path d="M62.1,14.4h-5.3v14.9h5.3v-6c0-2.6,0.7-4.5,3.6-4.5c0.8,0,1.6,0.1,2.3,0.5v-5.1h-1c-2.1,0-3.8,0.8-4.8,2.6h-0.1L62.1,14.4
		L62.1,14.4L62.1,14.4z"/>
	<polygon points="53.5,18.8 56.5,18.8 56.5,14.4 53.5,14.4 53.5,9.9 48.3,9.9 48.3,14.4 46.5,14.4 46.5,18.8 48.3,18.8 48.3,29.3 
		53.5,29.3 53.5,18.8 	"/>
	<path d="M45.6,14.9c-1.6-0.7-3.2-1-4.9-1c-3.3,0-6.6,1.6-6.6,5.3c0,2.7,1.7,3.5,3.3,4c1.7,0.4,3.3,0.5,3.3,1.7c0,0.8-1,1.1-1.7,1.1
		c-1.3,0-3.1-0.8-4.2-1.6l-1.9,3.7c1.8,1.1,3.9,1.7,6,1.7c3.5,0,7-1.6,7-5.6c0-2.7-1.9-3.9-4.3-4.4c-0.7-0.1-2.4-0.3-2.4-1.3
		c0-0.7,1.1-1,1.7-1c0.9,0,2,0.3,2.8,0.7L45.6,14.9L45.6,14.9L45.6,14.9z"/>
	<path class="st0" d="M28.8,1.5C21.1,6.6,13.4,11.8,5.7,16.9c-3.4,2.6-3.3,6.6-1,9.9l24-16.1V1.5H28.8L28.8,1.5z"/>
	<path class="st0" d="M0.4,41.5c7.7-5.1,15.4-10.3,23.1-15.4c3.4-2.6,3.3-6.6,1-9.9l-24,16.1L0.4,41.5L0.4,41.5L0.4,41.5z"/>
</g>
</svg>
